<?xml version="1.0"?>
<svg width="248" height="210" xmlns="http://www.w3.org/2000/svg">
 <!-- Created with Method Draw - http://github.com/duopixel/Method-Draw/ -->
 <g>
  <title>Layer 1</title>
  <path id="svg_3" d="m70.756287,15.5c5.789993,-4.43 10.469986,-10.040001 15.229996,-15.5c0.48999,23.019997 -0.130005,46.049995 0.339996,69.07c7.350006,-2.440002 13.889999,-6.669998 20.639999,-10.389999c18.069992,-10.400009 36.550003,-21.470001 57.479996,-24.770004c18.26001,-3.369995 37.26001,1.270004 53.26001,10.25c8.5,4.690002 16.410004,11.360001 20.540009,20.330002c1.799988,5.309998 1.429993,11.779999 -2.230011,16.270004c-4.200012,5.610001 -12.140015,8.830002 -18.809998,5.819992c-8.73999,-2.690002 -13.589996,-13.349991 -10.040009,-21.73999c2.119995,-6.610001 9.01001,-9.540009 15.070007,-11.490005c-8.580017,-5.330002 -18.339996,-8.529999 -28.26001,-10.229996c-6.779999,-0.810013 -13.639984,-0.700012 -20.449982,-0.440002c-11.529999,0.839996 -22.540009,5.199997 -32.380005,11.119995c-13.600006,7.820007 -25.52002,18.270004 -39.430008,25.580002c-4.940002,2.779999 -10.199997,4.880005 -15.470001,6.910004c-0.220001,29.339996 0,58.68 -0.110001,88.019997c-0.160004,8.609985 2.970001,18.050003 10.770004,22.600021c10.539993,6.389984 24.020004,3.719955 34.039993,-2.420013c-5.089996,-5.310013 -10.75,-10.829987 -12.309998,-18.320007c-2.220001,-8.169983 0.98999,-17.860001 8.429993,-22.250015c8.220001,-5.299973 20.309998,-3.229996 26,4.809998c3.870026,5.320007 5.180023,12.480011 2.910004,18.730026c-1.970001,6.839996 -7.25,11.799973 -11.619995,17.149979c8.570007,3.820007 17.660004,6.959991 27.140015,7.170013c6.429993,0.079987 13.039978,0.520004 19.269989,-1.440002c8.75,-2.670013 17.309998,-7.949997 21.589996,-16.309998c3.910004,-7.220001 3.179993,-16.52002 -1.220001,-23.360016c-3.5,-5.539978 -9.230011,-9.149994 -14.980011,-12.009979c-16.329987,-7.679993 -33.73999,-13.690002 -48.149994,-24.860008c-7.809998,-5.839996 -14.959991,-13.240005 -18.220001,-22.619995c-3.589996,-10.050003 -2.639984,-22.100006 3.910004,-30.75c3.790009,-5.080002 8.589996,-9.51001 14.369995,-12.220001c-0.940002,5.330002 -1.720001,10.959991 0.120026,16.199997c2.409973,6.940002 7.919983,12.210007 13.519989,16.690002c9.790009,7.309998 21.029999,12.380005 32.419983,16.639999c12.310028,4.25 24.77002,8.779999 35.330017,16.600006c9.059998,6.599998 16.26001,16.339989 18.209991,27.530006c1.119995,8.199982 0.77002,16.939987 -3.049988,24.449966c-6.820007,14.52002 -21.27002,23.960022 -36.070007,28.940002c-19.269989,6.51001 -40.899994,6.290009 -59.880005,-1.130005c-3.799988,-1.329987 -7.149994,-3.889969 -11.119995,-4.659958c-3.73999,0.699982 -6.929993,3 -10.440002,4.34996c-12.790009,5.190002 -26.869995,7.090042 -40.580002,5.610016c-11.889999,-1.499985 -23.669998,-7.910004 -29.519989,-18.679993c-4.860001,-8.27002 -5.470001,-18.110016 -5.180008,-27.470001c0,-18.670013 -0.009995,-37.340004 0,-56.010002c-0.009995,-5.570007 0.190002,-11.149994 -0.389999,-16.690002c-14.740005,-1.470001 -29.710007,-5.410004 -41.589996,-14.619995c-4.550003,-3.779999 -8.699997,-8.680008 -9.720001,-14.680008c-1.470001,-11.009995 10.160004,-21.979996 21.050003,-18.289993c9.029999,2.209991 14.319992,12.639999 11.429993,21.339996c-1.550003,5.800003 -6.979996,9.080002 -11.949997,11.680008c9.819992,3.299988 20.369995,4.649994 30.669998,3.189987c0.830002,-6.609985 0.440002,-13.289993 0.5,-19.929993c0.029999,-10.910004 -0.089996,-21.820007 0.070007,-32.730003c6.659988,-2.969994 13.189987,-6.399994 18.860001,-11.039993z" fill="#000000"/>
 </g>
</svg>